<mxfile host="app.diagrams.net" modified="2022-08-18T08:52:51.907Z" agent="5.0 (Windows)" etag="3mP_yMLvgOuyeNATVNRF" version="20.2.3" type="github">
  <diagram id="Fjj4SbniKYHinYvKwIhf" name="Page-1">
    <mxGraphModel dx="1038" dy="556" grid="1" gridSize="10" guides="1" tooltips="1" connect="1" arrows="1" fold="1" page="1" pageScale="1" pageWidth="850" pageHeight="1100" math="0" shadow="0">
      <root>
        <mxCell id="0" />
        <mxCell id="1" parent="0" />
        <mxCell id="MFsfajndaZtxW3nM3Es--1" value="TML Producer" style="shape=process;whiteSpace=wrap;html=1;backgroundOutline=1;" parent="1" vertex="1">
          <mxGeometry x="200" y="60" width="190" height="60" as="geometry" />
        </mxCell>
        <mxCell id="MFsfajndaZtxW3nM3Es--2" value="" style="whiteSpace=wrap;html=1;aspect=fixed;" parent="1" vertex="1">
          <mxGeometry x="200" y="160" width="360" height="360" as="geometry" />
        </mxCell>
        <mxCell id="MFsfajndaZtxW3nM3Es--6" style="edgeStyle=orthogonalEdgeStyle;rounded=0;orthogonalLoop=1;jettySize=auto;html=1;" parent="1" source="MFsfajndaZtxW3nM3Es--1" target="MFsfajndaZtxW3nM3Es--3" edge="1">
          <mxGeometry relative="1" as="geometry" />
        </mxCell>
        <mxCell id="MFsfajndaZtxW3nM3Es--3" value="" style="shape=note;whiteSpace=wrap;html=1;backgroundOutline=1;darkOpacity=0.05;" parent="1" vertex="1">
          <mxGeometry x="220" y="190" width="150" height="310" as="geometry" />
        </mxCell>
        <mxCell id="MFsfajndaZtxW3nM3Es--5" value="Partition 1 " style="shape=note;whiteSpace=wrap;html=1;backgroundOutline=1;darkOpacity=0.05;" parent="1" vertex="1">
          <mxGeometry x="240" y="230" width="110" height="70" as="geometry" />
        </mxCell>
        <mxCell id="MFsfajndaZtxW3nM3Es--7" value="Partition 2 " style="shape=note;whiteSpace=wrap;html=1;backgroundOutline=1;darkOpacity=0.05;" parent="1" vertex="1">
          <mxGeometry x="240" y="320" width="110" height="70" as="geometry" />
        </mxCell>
        <mxCell id="MFsfajndaZtxW3nM3Es--8" value="Partition 3 " style="shape=note;whiteSpace=wrap;html=1;backgroundOutline=1;darkOpacity=0.05;" parent="1" vertex="1">
          <mxGeometry x="240" y="410" width="110" height="70" as="geometry" />
        </mxCell>
        <mxCell id="MFsfajndaZtxW3nM3Es--9" value="" style="shape=note;whiteSpace=wrap;html=1;backgroundOutline=1;darkOpacity=0.05;" parent="1" vertex="1">
          <mxGeometry x="385" y="190" width="150" height="310" as="geometry" />
        </mxCell>
        <mxCell id="MFsfajndaZtxW3nM3Es--10" value="Partition 1 " style="shape=note;whiteSpace=wrap;html=1;backgroundOutline=1;darkOpacity=0.05;" parent="1" vertex="1">
          <mxGeometry x="405" y="230" width="110" height="70" as="geometry" />
        </mxCell>
        <mxCell id="MFsfajndaZtxW3nM3Es--11" value="Partition 2 " style="shape=note;whiteSpace=wrap;html=1;backgroundOutline=1;darkOpacity=0.05;" parent="1" vertex="1">
          <mxGeometry x="405" y="320" width="110" height="70" as="geometry" />
        </mxCell>
        <mxCell id="MFsfajndaZtxW3nM3Es--12" value="Partition 3 " style="shape=note;whiteSpace=wrap;html=1;backgroundOutline=1;darkOpacity=0.05;" parent="1" vertex="1">
          <mxGeometry x="405" y="410" width="110" height="70" as="geometry" />
        </mxCell>
        <mxCell id="MFsfajndaZtxW3nM3Es--13" value="Allocations Topic" style="text;html=1;strokeColor=none;fillColor=none;align=center;verticalAlign=middle;whiteSpace=wrap;rounded=0;" parent="1" vertex="1">
          <mxGeometry x="260" y="190" width="60" height="30" as="geometry" />
        </mxCell>
        <mxCell id="MFsfajndaZtxW3nM3Es--14" value="Aggregator Topic" style="text;html=1;strokeColor=none;fillColor=none;align=center;verticalAlign=middle;whiteSpace=wrap;rounded=0;" parent="1" vertex="1">
          <mxGeometry x="420" y="190" width="60" height="30" as="geometry" />
        </mxCell>
        <mxCell id="MFsfajndaZtxW3nM3Es--28" style="edgeStyle=orthogonalEdgeStyle;rounded=0;orthogonalLoop=1;jettySize=auto;html=1;" parent="1" source="MFsfajndaZtxW3nM3Es--15" target="MFsfajndaZtxW3nM3Es--22" edge="1">
          <mxGeometry relative="1" as="geometry" />
        </mxCell>
        <mxCell id="MFsfajndaZtxW3nM3Es--29" value="Aggregation Data" style="edgeLabel;html=1;align=center;verticalAlign=middle;resizable=0;points=[];" parent="MFsfajndaZtxW3nM3Es--28" vertex="1" connectable="0">
          <mxGeometry x="-0.2872" y="-2" relative="1" as="geometry">
            <mxPoint as="offset" />
          </mxGeometry>
        </mxCell>
        <mxCell id="MFsfajndaZtxW3nM3Es--15" value="TML Aggregator Service" style="shape=process;whiteSpace=wrap;html=1;backgroundOutline=1;" parent="1" vertex="1">
          <mxGeometry x="400" y="600" width="160" height="40" as="geometry" />
        </mxCell>
        <mxCell id="MFsfajndaZtxW3nM3Es--16" value="TML Alloc Audit Service" style="shape=process;whiteSpace=wrap;html=1;backgroundOutline=1;" parent="1" vertex="1">
          <mxGeometry x="200" y="600" width="160" height="40" as="geometry" />
        </mxCell>
        <mxCell id="MFsfajndaZtxW3nM3Es--17" value="" style="endArrow=classic;html=1;rounded=0;entryX=0.544;entryY=0.025;entryDx=0;entryDy=0;entryPerimeter=0;" parent="1" target="MFsfajndaZtxW3nM3Es--16" edge="1">
          <mxGeometry width="50" height="50" relative="1" as="geometry">
            <mxPoint x="287" y="500" as="sourcePoint" />
            <mxPoint x="450" y="490" as="targetPoint" />
          </mxGeometry>
        </mxCell>
        <mxCell id="MFsfajndaZtxW3nM3Es--18" value="Read Allocation Status Msgs" style="edgeLabel;html=1;align=center;verticalAlign=middle;resizable=0;points=[];" parent="MFsfajndaZtxW3nM3Es--17" vertex="1" connectable="0">
          <mxGeometry x="0.1504" y="-1" relative="1" as="geometry">
            <mxPoint as="offset" />
          </mxGeometry>
        </mxCell>
        <mxCell id="MFsfajndaZtxW3nM3Es--20" value="" style="endArrow=classic;html=1;rounded=0;exitX=0.75;exitY=0;exitDx=0;exitDy=0;" parent="1" source="MFsfajndaZtxW3nM3Es--16" edge="1">
          <mxGeometry width="50" height="50" relative="1" as="geometry">
            <mxPoint x="290" y="590" as="sourcePoint" />
            <mxPoint x="455" y="500" as="targetPoint" />
            <Array as="points">
              <mxPoint x="320" y="560" />
              <mxPoint x="455" y="560" />
            </Array>
          </mxGeometry>
        </mxCell>
        <mxCell id="MFsfajndaZtxW3nM3Es--21" value="Write To Aggregator" style="edgeLabel;html=1;align=center;verticalAlign=middle;resizable=0;points=[];" parent="MFsfajndaZtxW3nM3Es--20" vertex="1" connectable="0">
          <mxGeometry x="0.2936" y="-2" relative="1" as="geometry">
            <mxPoint as="offset" />
          </mxGeometry>
        </mxCell>
        <mxCell id="MFsfajndaZtxW3nM3Es--22" value="TML DB" style="shape=cylinder3;whiteSpace=wrap;html=1;boundedLbl=1;backgroundOutline=1;size=15;" parent="1" vertex="1">
          <mxGeometry x="690" y="610" width="80" height="136" as="geometry" />
        </mxCell>
        <mxCell id="MFsfajndaZtxW3nM3Es--23" value="" style="endArrow=classic;html=1;rounded=0;" parent="1" source="MFsfajndaZtxW3nM3Es--16" target="MFsfajndaZtxW3nM3Es--22" edge="1">
          <mxGeometry width="50" height="50" relative="1" as="geometry">
            <mxPoint x="280" y="690" as="sourcePoint" />
            <mxPoint x="330" y="640" as="targetPoint" />
            <Array as="points">
              <mxPoint x="280" y="680" />
            </Array>
          </mxGeometry>
        </mxCell>
        <mxCell id="MFsfajndaZtxW3nM3Es--24" value="Audit Data" style="edgeLabel;html=1;align=center;verticalAlign=middle;resizable=0;points=[];" parent="MFsfajndaZtxW3nM3Es--23" vertex="1" connectable="0">
          <mxGeometry x="0.1591" y="-3" relative="1" as="geometry">
            <mxPoint as="offset" />
          </mxGeometry>
        </mxCell>
        <mxCell id="MFsfajndaZtxW3nM3Es--26" value="" style="endArrow=classic;html=1;rounded=0;entryX=0.75;entryY=0;entryDx=0;entryDy=0;exitX=0.893;exitY=0.997;exitDx=0;exitDy=0;exitPerimeter=0;" parent="1" source="MFsfajndaZtxW3nM3Es--9" target="MFsfajndaZtxW3nM3Es--15" edge="1">
          <mxGeometry width="50" height="50" relative="1" as="geometry">
            <mxPoint x="380" y="490" as="sourcePoint" />
            <mxPoint x="430" y="440" as="targetPoint" />
          </mxGeometry>
        </mxCell>
        <mxCell id="MFsfajndaZtxW3nM3Es--27" value="Read Aggregation Msgs" style="edgeLabel;html=1;align=center;verticalAlign=middle;resizable=0;points=[];" parent="MFsfajndaZtxW3nM3Es--26" vertex="1" connectable="0">
          <mxGeometry x="-0.2881" relative="1" as="geometry">
            <mxPoint as="offset" />
          </mxGeometry>
        </mxCell>
        <mxCell id="MFsfajndaZtxW3nM3Es--31" style="edgeStyle=orthogonalEdgeStyle;rounded=0;orthogonalLoop=1;jettySize=auto;html=1;" parent="1" source="MFsfajndaZtxW3nM3Es--30" target="MFsfajndaZtxW3nM3Es--22" edge="1">
          <mxGeometry relative="1" as="geometry" />
        </mxCell>
        <mxCell id="MFsfajndaZtxW3nM3Es--32" value="Error Messages" style="edgeLabel;html=1;align=center;verticalAlign=middle;resizable=0;points=[];" parent="MFsfajndaZtxW3nM3Es--31" vertex="1" connectable="0">
          <mxGeometry x="0.125" y="-1" relative="1" as="geometry">
            <mxPoint as="offset" />
          </mxGeometry>
        </mxCell>
        <mxCell id="MFsfajndaZtxW3nM3Es--33" style="edgeStyle=orthogonalEdgeStyle;rounded=0;orthogonalLoop=1;jettySize=auto;html=1;" parent="1" source="MFsfajndaZtxW3nM3Es--30" target="MFsfajndaZtxW3nM3Es--9" edge="1">
          <mxGeometry relative="1" as="geometry">
            <Array as="points">
              <mxPoint x="730" y="345" />
            </Array>
          </mxGeometry>
        </mxCell>
        <mxCell id="MFsfajndaZtxW3nM3Es--34" value="Retry Messages" style="edgeLabel;html=1;align=center;verticalAlign=middle;resizable=0;points=[];" parent="MFsfajndaZtxW3nM3Es--33" vertex="1" connectable="0">
          <mxGeometry x="-0.3538" y="1" relative="1" as="geometry">
            <mxPoint as="offset" />
          </mxGeometry>
        </mxCell>
        <mxCell id="MFsfajndaZtxW3nM3Es--30" value="TML Retry Service" style="shape=process;whiteSpace=wrap;html=1;backgroundOutline=1;" parent="1" vertex="1">
          <mxGeometry x="650" y="410" width="160" height="40" as="geometry" />
        </mxCell>
        <mxCell id="MFsfajndaZtxW3nM3Es--35" value="TML UI" style="whiteSpace=wrap;html=1;aspect=fixed;" parent="1" vertex="1">
          <mxGeometry x="150" y="720" width="80" height="80" as="geometry" />
        </mxCell>
        <mxCell id="MFsfajndaZtxW3nM3Es--36" value="TML UI Service" style="shape=process;whiteSpace=wrap;html=1;backgroundOutline=1;" parent="1" vertex="1">
          <mxGeometry x="280" y="740" width="160" height="40" as="geometry" />
        </mxCell>
        <mxCell id="MFsfajndaZtxW3nM3Es--37" value="TML REST API" style="rounded=0;whiteSpace=wrap;html=1;" parent="1" vertex="1">
          <mxGeometry x="490" y="740" width="120" height="40" as="geometry" />
        </mxCell>
        <mxCell id="MFsfajndaZtxW3nM3Es--39" value="" style="endArrow=classic;startArrow=classic;html=1;rounded=0;entryX=0;entryY=0.5;entryDx=0;entryDy=0;" parent="1" source="MFsfajndaZtxW3nM3Es--35" target="MFsfajndaZtxW3nM3Es--36" edge="1">
          <mxGeometry width="50" height="50" relative="1" as="geometry">
            <mxPoint x="230" y="810" as="sourcePoint" />
            <mxPoint x="300.71067811865476" y="760" as="targetPoint" />
          </mxGeometry>
        </mxCell>
        <mxCell id="MFsfajndaZtxW3nM3Es--43" value="" style="endArrow=classic;startArrow=classic;html=1;rounded=0;entryX=0;entryY=0.5;entryDx=0;entryDy=0;exitX=1;exitY=0.5;exitDx=0;exitDy=0;" parent="1" source="MFsfajndaZtxW3nM3Es--36" target="MFsfajndaZtxW3nM3Es--37" edge="1">
          <mxGeometry width="50" height="50" relative="1" as="geometry">
            <mxPoint x="440" y="800" as="sourcePoint" />
            <mxPoint x="490" y="750" as="targetPoint" />
          </mxGeometry>
        </mxCell>
        <mxCell id="MFsfajndaZtxW3nM3Es--44" value="" style="endArrow=classic;startArrow=classic;html=1;rounded=0;entryX=0.5;entryY=1;entryDx=0;entryDy=0;entryPerimeter=0;exitX=1;exitY=0.5;exitDx=0;exitDy=0;" parent="1" source="MFsfajndaZtxW3nM3Es--37" target="MFsfajndaZtxW3nM3Es--22" edge="1">
          <mxGeometry width="50" height="50" relative="1" as="geometry">
            <mxPoint x="660" y="840" as="sourcePoint" />
            <mxPoint x="710" y="790" as="targetPoint" />
            <Array as="points">
              <mxPoint x="730" y="760" />
            </Array>
          </mxGeometry>
        </mxCell>
        <mxCell id="SGmpjQSNQNTNHXSJb0cF-1" value="Mercury" style="shape=process;whiteSpace=wrap;html=1;backgroundOutline=1;" vertex="1" parent="1">
          <mxGeometry x="20" y="315" width="120" height="60" as="geometry" />
        </mxCell>
        <mxCell id="SGmpjQSNQNTNHXSJb0cF-2" value="" style="endArrow=classic;html=1;rounded=0;entryX=1;entryY=0.5;entryDx=0;entryDy=0;exitX=0;exitY=0.5;exitDx=0;exitDy=0;exitPerimeter=0;" edge="1" parent="1" source="MFsfajndaZtxW3nM3Es--3" target="SGmpjQSNQNTNHXSJb0cF-1">
          <mxGeometry width="50" height="50" relative="1" as="geometry">
            <mxPoint x="400" y="510" as="sourcePoint" />
            <mxPoint x="450" y="460" as="targetPoint" />
          </mxGeometry>
        </mxCell>
      </root>
    </mxGraphModel>
  </diagram>
</mxfile>
